<?xml version="1.0" encoding="UTF-8"?>
<svg xmlns="http://www.w3.org/2000/svg" xmlns:xlink="http://www.w3.org/1999/xlink" width="512pt" height="512pt" viewBox="0 0 512 512" version="1.1">
<defs>
<linearGradient id="linear0" gradientUnits="userSpaceOnUse" x1="87.413628" y1="44.685059" x2="87.413628" y2="152.741379" gradientTransform="matrix(2.976744,0,0,2.976744,0,0)">
<stop offset="0" style="stop-color:rgb(91.764706%,93.333334%,51.372552%);stop-opacity:1;"/>
<stop offset="1" style="stop-color:rgb(99.215686%,77.254903%,60.000002%);stop-opacity:1;"/>
</linearGradient>
<linearGradient id="linear1" gradientUnits="userSpaceOnUse" x1="86" y1="16.125" x2="86" y2="155.875" >
<stop offset="0" style="stop-color:rgb(85.09804%,87.843138%,12.941177%);stop-opacity:1;"/>
<stop offset="1" style="stop-color:rgb(98.431373%,52.941179%,16.862746%);stop-opacity:1;"/>
</linearGradient>
<linearGradient id="linear2" gradientUnits="userSpaceOnUse" x1="134.375" y1="104.8125" x2="134.375" y2="172" gradientTransform="matrix(2.976744,0,0,2.976744,0,0)">
<stop offset="0" style="stop-color:rgb(10.196079%,42.745098%,100%);stop-opacity:1;"/>
<stop offset="1" style="stop-color:rgb(78.431374%,13.333334%,100%);stop-opacity:1;"/>
</linearGradient>
</defs>
<g id="surface12841368">
<path style=" stroke:none;fill-rule:nonzero;fill:url(#linear0);" d="M 284.160156 453.871094 C 274.929688 455.128906 265.574219 456 256 456 C 245.40625 456 235.078125 454.953125 224.910156 453.425781 L 224.910156 311.121094 L 173.449219 311.121094 L 173.449219 256.441406 L 224.910156 256.441406 L 224.910156 220.054688 C 224.910156 159.824219 254.257812 133.382812 304.320312 133.382812 C 328.296875 133.382812 340.976562 135.160156 346.976562 135.96875 L 346.976562 183.695312 L 312.832031 183.695312 C 291.585938 183.695312 284.160156 203.847656 284.160156 226.558594 L 284.160156 256.449219 L 346.449219 256.449219 L 340.234375 296.621094 C 326.8125 298.324219 314.4375 303.460938 304.019531 311.128906 L 284.160156 311.128906 L 284.160156 332.421875 C 276.460938 344.5625 272 358.96875 272 374.398438 C 272 394.480469 276.601562 413.339844 284.160156 430.5 Z M 284.160156 453.871094 "/>
<path style="fill:none;stroke-width:5.375;stroke-linecap:butt;stroke-linejoin:miter;stroke:url(#linear1);stroke-miterlimit:10;" d="M 153.1875 86 C 153.1875 90.604706 152.724274 95.101807 151.841125 99.446686 C 151.610168 99.440125 151.377899 99.4375 151.14563 99.4375 C 144.976715 99.4375 139.037445 101.643402 134.375 105.525055 C 129.712555 101.643402 123.773285 99.4375 117.60437 99.4375 C 103.140686 99.4375 91.375 111.25174 91.375 125.774475 C 91.375 135.479919 94.572968 144.335022 99.329895 151.864746 C 95.021759 152.732147 90.564026 153.1875 86 153.1875 C 48.893341 153.1875 18.8125 123.106659 18.8125 86 C 18.8125 48.893341 48.893341 18.8125 86 18.8125 C 123.106659 18.8125 153.1875 48.893341 153.1875 86 Z M 153.1875 86 " transform="matrix(2.976744,0,0,2.976744,0,0)"/>
<path style=" stroke:none;fill-rule:nonzero;fill:url(#linear2);" d="M 449.921875 312 C 429.921875 312 411.519531 321.601562 400 337.28125 C 388.480469 321.601562 370.078125 312 350.078125 312 C 315.839844 312 288 340 288 374.398438 C 288 456.398438 372.078125 512 400 512 C 427.921875 512 512 456.398438 512 374.398438 C 512 340 484.160156 312 449.921875 312 Z M 400 496 C 381.441406 496 304 447.441406 304 374.398438 C 304 348.800781 324.640625 328 350.078125 328 C 368.71875 328 385.441406 339.199219 392.640625 356.558594 L 394.078125 360 L 405.921875 360 L 407.359375 356.558594 C 414.558594 339.199219 431.28125 328 449.921875 328 C 475.359375 328 496 348.800781 496 374.398438 C 496 447.441406 418.558594 496 400 496 Z M 400 496 "/>
</g>
</svg>
