<?xml version="1.0" encoding="UTF-8"?>
<svg xmlns="http://www.w3.org/2000/svg" xmlns:xlink="http://www.w3.org/1999/xlink" width="480pt" height="480pt" viewBox="0 0 480 480" version="1.1">
<g id="surface12846838">
<path style=" stroke:none;fill-rule:nonzero;fill:rgb(94.509804%,76.862746%,5.882353%);fill-opacity:1;" d="M 165.539062 78.140625 L 182.085938 127.78125 L 198.632812 78.140625 L 215.179688 78.140625 L 190.359375 152.601562 L 190.359375 202.21875 L 173.8125 202.21875 L 173.8125 152.601562 L 148.992188 78.140625 Z M 258.539062 117.1875 C 263.53125 121.804688 264.820312 128.742188 264.84375 136.03125 L 264.84375 177.398438 C 264.84375 185.671875 263.789062 191.296875 258.609375 195.914062 C 253.640625 200.71875 248.8125 202.21875 240 202.21875 C 231.585938 202.21875 226.6875 200.695312 221.53125 195.914062 C 216.539062 191.085938 215.179688 185.648438 215.179688 177.398438 L 215.179688 136.054688 C 214.828125 124.78125 216.28125 121.429688 221.4375 117.023438 C 226.828125 112.617188 231.164062 111.210938 240 111.210938 C 248.039062 111.210938 253.359375 112.429688 258.539062 117.1875 Z M 297.914062 111.234375 L 297.914062 177.421875 C 297.914062 185.34375 304.476562 185.695312 306.1875 185.695312 C 307.710938 185.695312 314.367188 183.070312 314.460938 177.421875 L 314.460938 111.234375 L 331.007812 111.234375 L 331.007812 202.242188 L 314.460938 202.242188 L 314.460938 193.96875 C 310.804688 198 306.351562 202.242188 297.914062 202.242188 C 289.476562 202.242188 281.367188 193.734375 281.367188 185.695312 L 281.367188 111.234375 Z M 231.726562 136.054688 L 231.726562 177.398438 C 231.726562 185.578125 237.515625 185.695312 240 185.695312 C 242.671875 185.695312 248.273438 185.4375 248.273438 177.398438 L 248.273438 136.054688 C 248.273438 127.757812 242.484375 127.78125 240 127.78125 C 235.3125 127.78125 231.726562 129.304688 231.726562 136.054688 Z M 102 228 C 102 231.304688 99.304688 234 96 234 C 92.695312 234 90 231.304688 90 228 C 90 224.695312 92.695312 222 96 222 C 99.304688 222 102 224.695312 102 228 Z M 126 228 C 126 231.304688 123.304688 234 120 234 C 116.695312 234 114 231.304688 114 228 C 114 224.695312 116.695312 222 120 222 C 123.304688 222 126 224.695312 126 228 Z M 150 228 C 150 231.304688 147.304688 234 144 234 C 140.695312 234 138 231.304688 138 228 C 138 224.695312 140.695312 222 144 222 C 147.304688 222 150 224.695312 150 228 Z M 174 228 C 174 231.304688 171.304688 234 168 234 C 164.695312 234 162 231.304688 162 228 C 162 224.695312 164.695312 222 168 222 C 171.304688 222 174 224.695312 174 228 Z M 198 228 C 198 231.304688 195.304688 234 192 234 C 188.695312 234 186 231.304688 186 228 C 186 224.695312 188.695312 222 192 222 C 195.304688 222 198 224.695312 198 228 Z M 222 228 C 222 231.304688 219.304688 234 216 234 C 212.695312 234 210 231.304688 210 228 C 210 224.695312 212.695312 222 216 222 C 219.304688 222 222 224.695312 222 228 Z M 246 228 C 246 231.304688 243.304688 234 240 234 C 236.695312 234 234 231.304688 234 228 C 234 224.695312 236.695312 222 240 222 C 243.304688 222 246 224.695312 246 228 Z M 270 228 C 270 231.304688 267.304688 234 264 234 C 260.695312 234 258 231.304688 258 228 C 258 224.695312 260.695312 222 264 222 C 267.304688 222 270 224.695312 270 228 Z M 294 228 C 294 231.304688 291.304688 234 288 234 C 284.695312 234 282 231.304688 282 228 C 282 224.695312 284.695312 222 288 222 C 291.304688 222 294 224.695312 294 228 Z M 318 228 C 318 231.304688 315.304688 234 312 234 C 308.695312 234 306 231.304688 306 228 C 306 224.695312 308.695312 222 312 222 C 315.304688 222 318 224.695312 318 228 Z M 342 228 C 342 231.304688 339.304688 234 336 234 C 332.695312 234 330 231.304688 330 228 C 330 224.695312 332.695312 222 336 222 C 339.304688 222 342 224.695312 342 228 Z M 366 228 C 366 231.304688 363.304688 234 360 234 C 356.695312 234 354 231.304688 354 228 C 354 224.695312 356.695312 222 360 222 C 363.304688 222 366 224.695312 366 228 Z M 390 228 C 390 231.304688 387.304688 234 384 234 C 380.695312 234 378 231.304688 378 228 C 378 224.695312 380.695312 222 384 222 C 387.304688 222 390 224.695312 390 228 Z M 84 246 C 84 249.304688 81.304688 252 78 252 C 74.695312 252 72 249.304688 72 246 C 72 242.695312 74.695312 240 78 240 C 81.304688 240 84 242.695312 84 246 Z M 408 246 C 408 249.304688 405.304688 252 402 252 C 398.695312 252 396 249.304688 396 246 C 396 242.695312 398.695312 240 402 240 C 405.304688 240 408 242.695312 408 246 Z M 173.8125 257.882812 L 173.8125 274.40625 L 157.265625 274.40625 L 157.265625 373.6875 L 140.71875 373.6875 L 140.71875 274.40625 L 124.171875 274.40625 L 124.171875 257.882812 Z M 264.820312 257.882812 L 264.820312 290.976562 C 266.71875 288 269.578125 285.65625 272.273438 284.320312 C 274.945312 282.9375 277.640625 282.1875 280.3125 282.1875 C 285.703125 282.1875 289.898438 284.085938 292.78125 287.742188 C 295.664062 291.398438 297.914062 296.226562 297.914062 303.375 L 297.914062 332.9375 C 289.492188 344.183594 284.464844 358.113281 284.375 373.191406 C 283.421875 373.496094 282.417969 373.679688 281.367188 373.6875 C 272.671875 373.78125 268.007812 369.140625 264.820312 365.414062 L 264.820312 373.6875 L 248.273438 373.6875 L 248.273438 257.882812 Z M 78 270 C 78 273.304688 75.304688 276 72 276 C 68.695312 276 66 273.304688 66 270 C 66 266.695312 68.695312 264 72 264 C 75.304688 264 78 266.695312 78 270 Z M 414 270 C 414 273.304688 411.304688 276 408 276 C 404.695312 276 402 273.304688 402 270 C 402 266.695312 404.695312 264 408 264 C 411.304688 264 414 266.695312 414 270 Z M 198.632812 282.679688 L 198.632812 348.867188 C 198.632812 350.789062 200.859375 357.210938 206.90625 357.164062 C 213.632812 357.09375 213.679688 350.8125 215.179688 348.867188 L 215.179688 282.679688 L 231.726562 282.679688 L 231.726562 373.6875 L 215.179688 373.6875 L 215.179688 365.4375 C 212.109375 369.046875 210.515625 370.171875 207.09375 371.90625 C 203.625 373.828125 200.15625 373.6875 196.898438 373.6875 C 192.890625 373.6875 188.34375 370.078125 186.210938 367.382812 C 184.3125 364.898438 182.085938 362.320312 182.085938 357.164062 L 182.085938 282.679688 Z M 350.179688 288.773438 C 354.296875 293.046875 355.726562 297.953125 355.824219 305.703125 C 354.675781 305.648438 353.527344 305.617188 352.371094 305.617188 C 347.886719 305.617188 343.503906 306.054688 339.261719 306.886719 C 338.976562 302.160156 335.390625 299.25 331.007812 299.25 C 326.4375 299.25 322.804688 303.070312 322.710938 307.5 L 322.710938 312.433594 C 316.65625 315.378906 311.101562 319.199219 306.210938 323.726562 L 306.210938 306.5625 C 306.210938 299.085938 308.835938 293.53125 313.664062 288.585938 C 317.507812 284.625 324.796875 282.703125 332.625 282.703125 C 340.5 282.703125 346.007812 284.367188 350.179688 288.773438 Z M 78 294 C 78 297.304688 75.304688 300 72 300 C 68.695312 300 66 297.304688 66 294 C 66 290.695312 68.695312 288 72 288 C 75.304688 288 78 290.695312 78 294 Z M 414 294 C 414 297.304688 411.304688 300 408 300 C 404.695312 300 402 297.304688 402 294 C 402 290.695312 404.695312 288 408 288 C 411.304688 288 414 290.695312 414 294 Z M 264.820312 303.375 L 264.820312 353.015625 C 264.890625 355.40625 268.523438 357.164062 273.09375 357.164062 C 277.664062 357.164062 281.367188 353.625 281.367188 349.054688 L 281.367188 307.5 C 281.367188 299.226562 277.664062 295.101562 273.09375 295.101562 C 268.523438 295.101562 264.890625 299.203125 264.820312 303.375 Z M 78 318 C 78 321.304688 75.304688 324 72 324 C 68.695312 324 66 321.304688 66 318 C 66 314.695312 68.695312 312 72 312 C 75.304688 312 78 314.695312 78 318 Z M 78 342 C 78 345.304688 75.304688 348 72 348 C 68.695312 348 66 345.304688 66 342 C 66 338.695312 68.695312 336 72 336 C 75.304688 336 78 338.695312 78 342 Z M 78 366 C 78 369.304688 75.304688 372 72 372 C 68.695312 372 66 369.304688 66 366 C 66 362.695312 68.695312 360 72 360 C 75.304688 360 78 362.695312 78 366 Z M 84 390 C 84 393.304688 81.304688 396 78 396 C 74.695312 396 72 393.304688 72 390 C 72 386.695312 74.695312 384 78 384 C 81.304688 384 84 386.695312 84 390 Z M 102 408 C 102 411.304688 99.304688 414 96 414 C 92.695312 414 90 411.304688 90 408 C 90 404.695312 92.695312 402 96 402 C 99.304688 402 102 404.695312 102 408 Z M 126 408 C 126 411.304688 123.304688 414 120 414 C 116.695312 414 114 411.304688 114 408 C 114 404.695312 116.695312 402 120 402 C 123.304688 402 126 404.695312 126 408 Z M 150 408 C 150 411.304688 147.304688 414 144 414 C 140.695312 414 138 411.304688 138 408 C 138 404.695312 140.695312 402 144 402 C 147.304688 402 150 404.695312 150 408 Z M 174 408 C 174 411.304688 171.304688 414 168 414 C 164.695312 414 162 411.304688 162 408 C 162 404.695312 164.695312 402 168 402 C 171.304688 402 174 404.695312 174 408 Z M 198 408 C 198 411.304688 195.304688 414 192 414 C 188.695312 414 186 411.304688 186 408 C 186 404.695312 188.695312 402 192 402 C 195.304688 402 198 404.695312 198 408 Z M 222 408 C 222 411.304688 219.304688 414 216 414 C 212.695312 414 210 411.304688 210 408 C 210 404.695312 212.695312 402 216 402 C 219.304688 402 222 404.695312 222 408 Z M 246 408 C 246 411.304688 243.304688 414 240 414 C 236.695312 414 234 411.304688 234 408 C 234 404.695312 236.695312 402 240 402 C 243.304688 402 246 404.695312 246 408 Z M 270 408 C 270 411.304688 267.304688 414 264 414 C 260.695312 414 258 411.304688 258 408 C 258 404.695312 260.695312 402 264 402 C 267.304688 402 270 404.695312 270 408 Z M 288 414 C 284.695312 414 282 411.304688 282 408 C 282 404.695312 284.695312 402 288 402 C 288.734375 402 289.4375 402.132812 290.089844 402.375 C 291.171875 404.921875 292.386719 407.390625 293.726562 409.785156 C 292.964844 412.222656 290.683594 414 288 414 Z M 288 414 "/>
<path style=" stroke:none;fill-rule:nonzero;fill:rgb(83.137256%,20%,80.784315%);fill-opacity:1;" d="M 432.375 317.617188 C 417.085938 317.617188 402.867188 323.691406 392.371094 334.488281 C 381.878906 323.691406 367.65625 317.617188 352.371094 317.617188 C 321.492188 317.617188 296.371094 342.738281 296.371094 373.617188 C 296.371094 406.886719 320.550781 426.289062 348.546875 448.765625 C 361.699219 459.320312 375.300781 470.234375 388 483.726562 L 392.371094 488.371094 L 396.746094 483.734375 C 409.441406 470.238281 423.042969 459.324219 436.195312 448.773438 C 464.191406 426.296875 488.371094 406.886719 488.371094 373.617188 C 488.371094 342.738281 463.25 317.617188 432.375 317.617188 Z M 428.683594 439.40625 C 417.234375 448.597656 404.421875 458.882812 392.371094 470.988281 C 380.324219 458.875 367.507812 448.597656 356.058594 439.40625 C 329.421875 418.023438 308.371094 401.132812 308.371094 373.617188 C 308.371094 349.359375 328.113281 329.617188 352.371094 329.617188 C 366.320312 329.617188 379.152344 336.066406 387.566406 347.304688 L 392.371094 353.71875 L 397.179688 347.304688 C 405.589844 336.066406 418.425781 329.617188 432.375 329.617188 C 456.632812 329.617188 476.371094 349.359375 476.371094 373.617188 C 476.371094 401.132812 455.324219 418.023438 428.683594 439.40625 Z M 428.683594 439.40625 "/>
</g>
</svg>
